<svg width="176" height="69" viewBox="0 0 176 69" fill="none" xmlns="http://www.w3.org/2000/svg">
<path d="M77.6833 47.576C75.2193 47.576 73.0433 47.16 71.1553 46.328C69.2673 45.464 67.7793 44.248 66.6913 42.68C65.6033 41.08 65.0433 39.144 65.0113 36.872H71.4913C71.5553 38.44 72.1153 39.768 73.1713 40.856C74.2593 41.912 75.7473 42.44 77.6353 42.44C79.2673 42.44 80.5633 42.056 81.5233 41.288C82.4833 40.488 82.9633 39.432 82.9633 38.12C82.9633 36.744 82.5313 35.672 81.6673 34.904C80.8353 34.136 79.7153 33.512 78.3073 33.032C76.8993 32.552 75.3953 32.04 73.7953 31.496C71.2033 30.6 69.2193 29.448 67.8433 28.04C66.4993 26.632 65.8273 24.76 65.8273 22.424C65.7953 20.44 66.2593 18.744 67.2193 17.336C68.2113 15.896 69.5553 14.792 71.2513 14.024C72.9473 13.224 74.8993 12.824 77.1073 12.824C79.3473 12.824 81.3153 13.224 83.0113 14.024C84.7393 14.824 86.0833 15.944 87.0433 17.384C88.0353 18.824 88.5633 20.536 88.6273 22.52H82.0513C82.0193 21.336 81.5553 20.296 80.6593 19.4C79.7953 18.472 78.5793 18.008 77.0113 18.008C75.6673 17.976 74.5313 18.312 73.6033 19.016C72.7073 19.688 72.2593 20.68 72.2593 21.992C72.2593 23.112 72.6113 24.008 73.3153 24.68C74.0193 25.32 74.9793 25.864 76.1953 26.312C77.4113 26.76 78.8033 27.24 80.3713 27.752C82.0353 28.328 83.5553 29 84.9313 29.768C86.3073 30.536 87.4113 31.56 88.2433 32.84C89.0753 34.088 89.4913 35.704 89.4913 37.688C89.4913 39.448 89.0433 41.08 88.1473 42.584C87.2513 44.088 85.9233 45.304 84.1633 46.232C82.4033 47.128 80.2433 47.576 77.6833 47.576ZM105.316 47C102.82 47 100.82 46.392 99.3159 45.176C97.8119 43.96 97.0599 41.8 97.0599 38.696V28.328H92.9799V23.192H97.0599L97.7799 16.808H103.204V23.192H109.636V28.328H103.204V38.744C103.204 39.896 103.444 40.696 103.924 41.144C104.436 41.56 105.3 41.768 106.516 41.768H109.492V47H105.316ZM118.223 19.496C117.103 19.496 116.175 19.16 115.439 18.488C114.735 17.816 114.383 16.968 114.383 15.944C114.383 14.92 114.735 14.088 115.439 13.448C116.175 12.776 117.103 12.44 118.223 12.44C119.343 12.44 120.255 12.776 120.959 13.448C121.695 14.088 122.063 14.92 122.063 15.944C122.063 16.968 121.695 17.816 120.959 18.488C120.255 19.16 119.343 19.496 118.223 19.496ZM115.151 47V23.192H121.295V47H115.151ZM127.708 47V23.192H133.132L133.612 27.224C134.348 25.816 135.404 24.696 136.78 23.864C138.188 23.032 139.836 22.616 141.724 22.616C144.668 22.616 146.956 23.544 148.588 25.4C150.22 27.256 151.036 29.976 151.036 33.56V47H144.892V34.136C144.892 32.088 144.476 30.52 143.644 29.432C142.812 28.344 141.516 27.8 139.756 27.8C138.028 27.8 136.604 28.408 135.484 29.624C134.396 30.84 133.852 32.536 133.852 34.712V47H127.708ZM167.519 47C165.023 47 163.023 46.392 161.519 45.176C160.015 43.96 159.263 41.8 159.263 38.696V28.328H155.183V23.192H159.263L159.983 16.808H165.407V23.192H171.839V28.328H165.407V38.744C165.407 39.896 165.647 40.696 166.127 41.144C166.639 41.56 167.503 41.768 168.719 41.768H171.695V47H167.519Z" fill="#4474B9"/>
<path d="M54.9115 31.4604L38.1135 57.9207L34.0381 51.5025L46.0411 32.5957L46.7608 31.4604L46.0411 30.325L34.0381 11.4204V11.4182L38.1135 5L54.9115 31.4604Z" fill="#4474B9"/>
<path d="M27.2452 17.5061L23.3799 11.4182L27.4553 5L31.3184 11.0857L27.2452 17.5061Z" fill="#4E8ACE"/>
<path d="M44.2533 31.4611L27.4553 57.9215L23.3799 51.5033L35.3829 32.5964L36.1026 31.4611L35.3829 30.3258L28.7109 19.8145L32.7841 13.3965L44.2533 31.4611Z" fill="#4E8ACE"/>
<path d="M33.5961 31.4604L25.99 43.4393L16.798 57.9207L10.4695 47.9522L8.64512 45.0799L3.98568 37.7386L0 31.4604L7.60604 19.4793L16.798 5L25.99 19.4793L25.9922 19.4812L18.3906 31.4647L16.8068 33.9607L10.3426 23.7821L10.3405 23.7865L8.88137 26.0856L13.7508 33.7573L16.8068 38.5718L19.854 33.7726L27.4579 21.7915L29.6104 25.1822L33.5961 31.4604Z" fill="#75C4F3"/>
<path opacity="0.4" d="M19.8536 33.772L25.9896 43.4387L16.7976 57.9201L10.4691 47.9515L7.60559 43.4387L13.7504 33.7567L16.8063 38.5712L19.8536 33.772Z" fill="#4E8ACE"/>
<path opacity="0.4" d="M10.34 23.7865L7.60559 19.4793L16.7976 5L25.9896 19.4793L18.3857 31.4604L18.3901 31.4647L16.8063 33.9607L10.3422 23.7821L10.34 23.7865Z" fill="#4E8ACE"/>
<path d="M38.1115 5L34.0361 11.4204V11.4182L38.1115 5Z" fill="white"/>
<path d="M59.078 65.084C58.798 65.084 58.5647 64.9953 58.378 64.818C58.2007 64.6313 58.112 64.412 58.112 64.16C58.112 63.8987 58.2007 63.6793 58.378 63.502C58.5647 63.3153 58.798 63.222 59.078 63.222C59.358 63.222 59.5867 63.3153 59.764 63.502C59.9413 63.6793 60.03 63.8987 60.03 64.16C60.03 64.412 59.9413 64.6313 59.764 64.818C59.5867 64.9953 59.358 65.084 59.078 65.084Z" fill="#0F6199"/>
</svg>
